<svg xmlns="http://www.w3.org/2000/svg" width="44.571" height="34.666" viewBox="0 0 44.571 34.666">
  <path id="capsules-solid" d="M42.969,52.746,32.825,38.252a8.841,8.841,0,0,0-15.538,1.989A8.648,8.648,0,0,0,0,40.667V58a8.667,8.667,0,0,0,17.333,0V46.462a8.967,8.967,0,0,0,.99,1.935L28.476,62.89A8.845,8.845,0,1,0,42.969,52.746ZM12.381,49.333H4.952V40.667a3.714,3.714,0,0,1,7.428,0Zm15.074,3.474-5.076-7.251a3.9,3.9,0,1,1,6.384-4.465l5.076,7.251Z" transform="translate(0 -32)" fill="#2699fb"/>
</svg>
