<svg xmlns="http://www.w3.org/2000/svg" width="34.125" height="35.097" viewBox="0 0 34.125 35.097">
  <g id="Group_783" data-name="Group 783" transform="translate(-338.069 -261.989)">
    <path id="capsules-solid" d="M32.9,47.884l-7.767-11.1a6.769,6.769,0,0,0-11.9,1.523A6.621,6.621,0,0,0,0,38.635V51.906a6.635,6.635,0,0,0,13.271,0V43.073a6.865,6.865,0,0,0,.758,1.481l7.773,11.1a6.772,6.772,0,1,0,11.1-7.767ZM9.479,45.271H3.792V38.635a2.844,2.844,0,0,1,5.688,0Zm11.541,2.66L17.134,42.38a2.982,2.982,0,1,1,4.888-3.418l3.886,5.551Z" transform="translate(338.069 229.989)" fill="#2699fb"/>
    <g id="Group_782" data-name="Group 782" transform="translate(347.903 272.795)">
      <circle id="Ellipse_332" data-name="Ellipse 332" cx="12.145" cy="12.145" r="12.145" fill="#fff"/>
      <path id="filter-solid" d="M14.566,0H.717A.717.717,0,0,0,.211,1.223L5.731,6.744V12.9a.716.716,0,0,0,.306.587l2.388,1.671a.717.717,0,0,0,1.127-.587V6.744l5.521-5.521A.717.717,0,0,0,14.566,0Z" transform="translate(4.598 5.66)" fill="#2699fb"/>
    </g>
  </g>
</svg>
