<svg xmlns="http://www.w3.org/2000/svg" width="88" height="72.424" viewBox="0 0 88 72.424">
  <g id="Group_768" data-name="Group 768" transform="translate(-267 -120.576)">
    <path id="route-solid" d="M46.189,35.53H35.53a3.553,3.553,0,0,1,0-7.106H46.189s10.659-11.88,10.659-17.765a10.659,10.659,0,0,0-21.318,0c0,2.831,2.465,7.039,5.03,10.659H35.53a10.659,10.659,0,0,0,0,21.318H46.189a3.553,3.553,0,1,1,0,7.106H20.6a76.656,76.656,0,0,1-5.252,7.106H46.189a10.659,10.659,0,0,0,0-21.318Zm0-28.424a3.553,3.553,0,1,1-3.553,3.553A3.549,3.549,0,0,1,46.189,7.106ZM10.659,28.424A10.662,10.662,0,0,0,0,39.083c0,5.885,10.659,17.765,10.659,17.765s10.659-11.88,10.659-17.765A10.662,10.662,0,0,0,10.659,28.424Zm0,14.212a3.553,3.553,0,1,1,3.553-3.553A3.549,3.549,0,0,1,10.659,42.636Z" transform="translate(282.576 120.576)" fill="#2699fb"/>
    <text id="Get_Direction" data-name="Get Direction" transform="translate(311 190)" fill="#2699fb" font-size="14" font-family="Arial-BoldMT, Arial" font-weight="700"><tspan x="-43.952" y="0">Get Direction</tspan></text>
  </g>
</svg>
