<svg xmlns="http://www.w3.org/2000/svg" width="158.223" height="152.251" viewBox="0 0 158.223 152.251">
  <g id="Group_794" data-name="Group 794" transform="translate(-1380 -1687.004)">
    <path id="mortar-pestle-solid" d="M149.145,18.116a10.61,10.61,0,0,0-13.869-15.99L74.667,47.583h45.013l29.464-29.467ZM147.5,57.1H4.758A4.757,4.757,0,0,0,0,61.857v9.516a4.757,4.757,0,0,0,4.758,4.758H9.516a57.07,57.07,0,0,0,36.021,53.028,38.151,38.151,0,0,0-7.419,17.453,4.885,4.885,0,0,0,4.779,5.644h66.463c2.983,0-19.968-7.291-20.4-10.241.269-7.8.09-3.464,0-13.978-.167-19.552.269-38.2,0-51.905H147.5a4.757,4.757,0,0,0,4.758-4.758V61.857A4.757,4.757,0,0,0,147.5,57.1Z" transform="translate(1380 1687)"/>
    <path id="prescription-solid" d="M47.659,82.624,60.009,70.275a2.531,2.531,0,0,0,0-3.58l-3.58-3.58a2.531,2.531,0,0,0-3.58,0L40.5,75.464,27.217,62.182A15.148,15.148,0,0,0,25.312,32H2.531A2.531,2.531,0,0,0,0,34.531v40.5a2.53,2.53,0,0,0,2.531,2.531H7.594a2.53,2.53,0,0,0,2.531-2.531V62.374h2.966l20.25,20.25L20.992,94.973a2.531,2.531,0,0,0,0,3.58l3.58,3.58a2.531,2.531,0,0,0,3.58,0L40.5,89.783l12.349,12.349a2.531,2.531,0,0,0,3.58,0l3.58-3.58a2.531,2.531,0,0,0,0-3.58Zm-37.535-40.5H25.312a5.062,5.062,0,0,1,0,10.125H10.125Z" transform="translate(1477.473 1736.38)"/>
  </g>
</svg>
