<svg xmlns="http://www.w3.org/2000/svg" width="32.789" height="31.894" viewBox="0 0 32.789 31.894">
  <g id="Group_778" data-name="Group 778" transform="translate(-913.211 -1169.106)">
    <path id="capsules-solid" d="M24.659,43.905l-5.822-8.317A5.074,5.074,0,0,0,9.92,36.729,4.963,4.963,0,0,0,0,36.973V46.92a4.973,4.973,0,0,0,9.947,0V40.3a5.146,5.146,0,0,0,.568,1.11l5.826,8.317a5.076,5.076,0,1,0,8.317-5.822ZM7.1,41.947H2.842V36.973a2.131,2.131,0,0,1,4.263,0Zm8.65,1.994L12.842,39.78a2.235,2.235,0,1,1,3.663-2.562l2.913,4.161Z" transform="translate(913.211 1137.106)" fill="#2699fb"/>
    <g id="Group_777" data-name="Group 777" transform="translate(7 -45)">
      <g id="Path_650" data-name="Path 650" transform="translate(917 1224.044)" fill="#fff">
        <path d="M 7.477997303009033 14.45599746704102 C 3.630317211151123 14.45599746704102 0.4999973177909851 11.32567691802979 0.4999973177909851 7.477997303009033 C 0.4999973177909851 3.630317211151123 3.630317211151123 0.4999973177909851 7.477997303009033 0.4999973177909851 C 11.32567691802979 0.4999973177909851 14.45599746704102 3.630317211151123 14.45599746704102 7.477997303009033 C 14.45599746704102 11.32567691802979 11.32567691802979 14.45599746704102 7.477997303009033 14.45599746704102 Z" stroke="none"/>
        <path d="M 7.477997303009033 0.9999971389770508 C 3.906017303466797 0.9999971389770508 0.9999971389770508 3.906017303466797 0.9999971389770508 7.477997303009033 C 0.9999971389770508 11.04997730255127 3.906017303466797 13.95599746704102 7.477997303009033 13.95599746704102 C 11.04997730255127 13.95599746704102 13.95599746704102 11.04997730255127 13.95599746704102 7.477997303009033 C 13.95599746704102 3.906017303466797 11.04997730255127 0.9999971389770508 7.477997303009033 0.9999971389770508 M 7.477997303009033 -2.86102294921875e-06 C 11.60797691345215 -2.86102294921875e-06 14.95599746704102 3.348017692565918 14.95599746704102 7.477997303009033 C 14.95599746704102 11.60797691345215 11.60797691345215 14.95599746704102 7.477997303009033 14.95599746704102 C 3.348017692565918 14.95599746704102 -2.86102294921875e-06 11.60797691345215 -2.86102294921875e-06 7.477997303009033 C -2.86102294921875e-06 3.348017692565918 3.348017692565918 -2.86102294921875e-06 7.477997303009033 -2.86102294921875e-06 Z" stroke="none" fill="#fff"/>
      </g>
      <g id="search_black_24dp" transform="translate(915 1222)">
        <path id="Path_648" data-name="Path 648" d="M0,0H24V24H0Z" fill="none"/>
        <path id="Path_649" data-name="Path 649" d="M15.5,14h-.79l-.28-.27a6.51,6.51,0,1,0-.7.7l.27.28v.79l5,4.99L20.49,19Zm-6,0A4.5,4.5,0,1,1,14,9.5,4.494,4.494,0,0,1,9.5,14Z" fill="#2699fb"/>
      </g>
    </g>
  </g>
</svg>
