<svg xmlns="http://www.w3.org/2000/svg" width="31.755" height="35.509" viewBox="0 0 31.755 35.509">
  <g id="Group_781" data-name="Group 781" transform="translate(-908.245 -1252.491)">
    <g id="Group_779" data-name="Group 779" transform="translate(-470.755 -434.513)">
      <path id="mortar-pestle-solid" d="M24.989,3.039A1.778,1.778,0,0,0,22.665.36L12.51,7.976h7.542l4.937-4.937ZM24.713,9.57H.8a.8.8,0,0,0-.8.8v1.594a.8.8,0,0,0,.8.8h.8A9.562,9.562,0,0,0,7.63,21.644a6.392,6.392,0,0,0-1.243,2.924.819.819,0,0,0,.8.946H18.323a.818.818,0,0,0,.8-.946,6.381,6.381,0,0,0-1.243-2.924,9.562,9.562,0,0,0,6.035-8.885h.8a.8.8,0,0,0,.8-.8V10.368A.8.8,0,0,0,24.713,9.57Z" transform="translate(1379 1686.999)" fill="#2699fb"/>
      <path id="prescription-solid" d="M3.874,36.114l1-1a.206.206,0,0,0,0-.291l-.291-.291a.206.206,0,0,0-.291,0l-1,1-1.08-1.08A1.231,1.231,0,0,0,2.057,32H.206A.206.206,0,0,0,0,32.206V35.5a.206.206,0,0,0,.206.206H.617A.206.206,0,0,0,.823,35.5V34.469h.241L2.71,36.114l-1,1a.206.206,0,0,0,0,.291L2,37.7a.206.206,0,0,0,.291,0l1-1,1,1a.206.206,0,0,0,.291,0l.291-.291a.206.206,0,0,0,0-.291ZM.823,32.823H2.057a.411.411,0,0,1,0,.823H.823Z" transform="translate(1389.286 1668.638)" fill="#fff"/>
    </g>
    <g id="Group_780" data-name="Group 780" transform="translate(2 48)">
      <g id="Path_651" data-name="Path 651" transform="translate(916 1218.044)" fill="#fff">
        <path d="M 7.477997303009033 14.45599746704102 C 3.630317211151123 14.45599746704102 0.4999973177909851 11.32567691802979 0.4999973177909851 7.477997303009033 C 0.4999973177909851 3.630317211151123 3.630317211151123 0.4999973177909851 7.477997303009033 0.4999973177909851 C 11.32567691802979 0.4999973177909851 14.45599746704102 3.630317211151123 14.45599746704102 7.477997303009033 C 14.45599746704102 11.32567691802979 11.32567691802979 14.45599746704102 7.477997303009033 14.45599746704102 Z" stroke="none"/>
        <path d="M 7.477997303009033 0.9999971389770508 C 3.906017303466797 0.9999971389770508 0.9999971389770508 3.906017303466797 0.9999971389770508 7.477997303009033 C 0.9999971389770508 11.04997730255127 3.906017303466797 13.95599746704102 7.477997303009033 13.95599746704102 C 11.04997730255127 13.95599746704102 13.95599746704102 11.04997730255127 13.95599746704102 7.477997303009033 C 13.95599746704102 3.906017303466797 11.04997730255127 0.9999971389770508 7.477997303009033 0.9999971389770508 M 7.477997303009033 -2.86102294921875e-06 C 11.60797691345215 -2.86102294921875e-06 14.95599746704102 3.348017692565918 14.95599746704102 7.477997303009033 C 14.95599746704102 11.60797691345215 11.60797691345215 14.95599746704102 7.477997303009033 14.95599746704102 C 3.348017692565918 14.95599746704102 -2.86102294921875e-06 11.60797691345215 -2.86102294921875e-06 7.477997303009033 C -2.86102294921875e-06 3.348017692565918 3.348017692565918 -2.86102294921875e-06 7.477997303009033 -2.86102294921875e-06 Z" stroke="none" fill="#fff"/>
      </g>
      <g id="search_black_24dp" transform="translate(914 1216)">
        <path id="Path_648" data-name="Path 648" d="M0,0H24V24H0Z" fill="none"/>
        <path id="Path_649" data-name="Path 649" d="M15.5,14h-.79l-.28-.27a6.51,6.51,0,1,0-.7.7l.27.28v.79l5,4.99L20.49,19Zm-6,0A4.5,4.5,0,1,1,14,9.5,4.494,4.494,0,0,1,9.5,14Z" fill="#2699fb"/>
      </g>
    </g>
  </g>
</svg>
