<svg xmlns="http://www.w3.org/2000/svg" width="512" height="512" viewBox="0 0 512 512">
  <path id="street-view-solid" d="M367.9,329.76A63.94,63.94,0,0,1,352,343.41v22.94c66.52,9.34,112,28.05,112,49.65,0,30.93-93.12,56-208,56S48,446.93,48,416c0-21.6,45.48-40.3,112-49.65V343.41a63.94,63.94,0,0,1-15.9-13.65C58.87,345.34,0,378.05,0,416c0,53.02,114.62,96,256,96s256-42.98,256-96C512,378.05,453.13,345.34,367.9,329.76ZM256,128a64,64,0,1,0-64-64A64,64,0,0,0,256,128ZM192,320v96a32,32,0,0,0,32,32h64a32,32,0,0,0,32-32V320a32,32,0,0,0,32-32V192a48,48,0,0,0-48-48H292.2a85.9,85.9,0,0,1-72.4,0H208a48,48,0,0,0-48,48v96A32,32,0,0,0,192,320Z" fill="#2699fb"/>
</svg>
